<svg width="714" height="595" viewBox="0 0 714 595" fill="none" xmlns="http://www.w3.org/2000/svg">
<path d="M712.565 391.747L354.565 593.247V138.378L712.565 152.747V391.747Z" fill="#6CA373" stroke="#6CA373"/>
<line x1="387.193" y1="243.28" x2="700.198" y2="255.018" stroke="#FDF8F8" stroke-width="7" stroke-linecap="round"/>
<line x1="101.912" y1="251.601" x2="304.917" y2="242.942" stroke="#FDF8F8" stroke-width="7" stroke-linecap="round"/>
<line x1="81.9409" y1="318.627" x2="304.945" y2="310.87" stroke="#FDF8F8" stroke-width="7" stroke-linecap="round"/>
<line x1="64.9496" y1="385.635" x2="304.953" y2="377.862" stroke="#FDF8F8" stroke-width="7" stroke-linecap="round"/>
<path d="M0.564697 391.247V152.247L353.565 138.378V593.247L0.564697 391.247Z" fill="#F4AD50" stroke="#F4AD50"/>
<line x1="45.9439" y1="252.03" x2="314.446" y2="242.91" stroke="#FDF8F8" stroke-width="7" stroke-linecap="round"/>
<path d="M1.26465 151.647L153.265 0.646729L352.565 137.447L1.26465 151.647Z" fill="#F8BE4B" stroke="#F8BE4B"/>
<path d="M559.788 0.836105L711.457 151.665L355.564 137.447L559.788 0.836105Z" fill="#79BD84" stroke="#79BD84"/>
<path d="M354.055 138.648L354.055 592.648" stroke="#B49AF7" stroke-width="4" stroke-linecap="round"/>
<path d="M100.159 218.943C99.3695 219.831 98.1784 220.531 96.5856 221.045C95.0562 221.615 93.1834 221.965 90.9672 222.094C88.751 222.224 86.6353 222.017 84.6202 221.473C82.6051 220.93 80.8952 219.437 79.4904 216.995L69.5356 199.365C68.5287 197.561 67.6186 195.871 66.8054 194.296C65.9887 192.661 65.0981 190.789 64.1336 188.682L63.5998 188.803C64.0282 192.024 64.3404 195.311 64.5363 198.665C64.7921 202.016 65.0145 205.309 65.2034 208.543L66.0167 222.47C65.3683 222.688 64.3605 222.927 62.9933 223.187C61.6861 223.444 60.3736 223.611 59.0558 223.687C57.7381 223.764 56.5648 223.743 55.536 223.623C54.5073 223.502 53.6477 223.192 52.9574 222.691C52.267 222.191 51.7159 221.502 51.304 220.624C50.8887 219.687 50.6373 218.469 50.5498 216.972L47.9263 172.049C48.6949 170.802 49.9302 169.828 51.6323 169.127C53.3343 168.427 55.1737 168.019 57.1503 167.904C59.3665 167.774 61.484 168.011 63.5026 168.615C65.5776 169.154 67.2858 170.617 68.6271 173.003L78.6718 190.628C79.6787 192.432 80.5905 194.152 81.4072 195.787C82.2204 197.362 83.1093 199.203 84.0738 201.311L84.5178 201.195C84.0893 197.974 83.7506 194.749 83.5019 191.518C83.2531 188.287 83.0342 185.054 82.8453 181.819L81.9953 167.264C82.6437 167.046 83.6215 166.809 84.9288 166.552C86.2959 166.292 87.6384 166.123 88.9561 166.046C91.5916 165.892 93.6262 166.254 95.0598 167.132C96.4899 167.95 97.2907 169.827 97.4621 172.762L100.159 218.943ZM154.673 195.745C154.89 199.459 154.515 202.817 153.549 205.818C152.579 208.76 151.103 211.28 149.122 213.379C147.201 215.475 144.833 217.115 142.017 218.302C139.201 219.488 136.026 220.184 132.492 220.39C128.959 220.597 125.722 220.245 122.784 219.335C119.846 218.424 117.271 217.042 115.06 215.188C112.904 213.27 111.173 210.907 109.867 208.099C108.561 205.29 107.803 202.089 107.594 198.495C107.387 194.961 107.769 191.723 108.739 188.781C109.709 185.84 111.155 183.321 113.076 181.226C115.054 179.067 117.448 177.364 120.261 176.118C123.073 174.872 126.246 174.146 129.78 173.94C133.314 173.733 136.551 174.115 139.493 175.085C142.431 175.995 144.978 177.409 147.133 179.327C149.345 181.181 151.104 183.513 152.41 186.321C153.716 189.13 154.47 192.271 154.673 195.745ZM123.227 197.582C123.44 201.236 124.294 204.011 125.787 205.907C127.336 207.74 129.369 208.582 131.884 208.436C134.4 208.289 136.259 207.188 137.462 205.135C138.724 203.078 139.25 200.252 139.04 196.658C138.83 193.064 137.98 190.349 136.491 188.513C134.998 186.617 132.993 185.742 130.478 185.889C127.962 186.036 126.073 187.138 124.811 189.195C123.545 191.192 123.017 193.988 123.227 197.582ZM160.164 158.642C160.752 158.427 161.7 158.192 163.008 157.935C164.311 157.619 165.652 157.42 167.03 157.34C168.347 157.263 169.521 157.284 170.549 157.405C171.638 157.521 172.558 157.828 173.308 158.325C174.058 158.822 174.641 159.54 175.056 160.477C175.468 161.354 175.718 162.542 175.805 164.039L176.319 172.844C177.782 172.158 179.165 171.656 180.469 171.34C181.832 171.02 183.323 170.813 184.94 170.718C187.815 170.55 190.57 170.9 193.205 171.768C195.84 172.636 198.204 174 200.296 175.862C202.385 177.663 204.082 179.968 205.388 182.777C206.694 185.585 207.457 188.876 207.677 192.65C207.905 196.543 207.505 199.992 206.479 202.997C205.509 205.939 204.031 208.429 202.047 210.468C200.062 212.508 197.572 214.126 194.577 215.322C191.638 216.455 188.342 217.129 184.688 217.342C180.735 217.573 177.352 217.29 174.541 216.492C171.733 215.755 169.331 214.753 167.334 213.487C164.59 211.784 163.132 209.466 162.961 206.531L160.164 158.642ZM183.985 205.303C186.74 205.142 188.812 204.089 190.201 202.145C191.647 200.137 192.261 197.277 192.044 193.563C191.824 189.789 190.881 187.02 189.215 185.254C187.549 183.488 185.398 182.682 182.763 182.836C181.565 182.906 180.524 183.087 179.639 183.379C178.815 183.667 177.907 184.081 176.917 184.62L178.061 204.206C178.744 204.587 179.544 204.901 180.46 205.148C181.432 205.332 182.607 205.383 183.985 205.303ZM260.314 189.576C260.531 193.29 260.156 196.647 259.189 199.649C258.219 202.59 256.743 205.11 254.762 207.21C252.841 209.305 250.473 210.946 247.657 212.132C244.842 213.318 241.667 214.015 238.133 214.221C234.599 214.427 231.363 214.075 228.425 213.165C225.487 212.255 222.912 210.873 220.7 209.018C218.544 207.101 216.814 204.738 215.508 201.929C214.202 199.12 213.444 195.919 213.234 192.325C213.028 188.791 213.409 185.554 214.38 182.612C215.35 179.67 216.795 177.152 218.716 175.056C220.694 172.897 223.089 171.195 225.901 169.949C228.713 168.703 231.886 167.976 235.42 167.77C238.954 167.564 242.192 167.946 245.133 168.916C248.071 169.826 250.618 171.24 252.774 173.158C254.986 175.012 256.744 177.343 258.05 180.152C259.356 182.96 260.111 186.102 260.314 189.576ZM228.867 191.412C229.081 195.066 229.934 197.841 231.427 199.737C232.976 201.57 235.009 202.413 237.525 202.266C240.04 202.119 241.9 201.019 243.102 198.965C244.364 196.908 244.89 194.083 244.68 190.489C244.47 186.895 243.621 184.18 242.131 182.344C240.638 180.447 238.634 179.573 236.118 179.72C233.602 179.867 231.713 180.969 230.451 183.026C229.185 185.023 228.657 187.818 228.867 191.412ZM264.04 174.573C264.387 172.269 265.207 170.358 266.5 168.84C267.854 167.318 269.579 166.496 271.675 166.374C273.652 166.259 275.207 166.649 276.341 167.544C277.476 168.439 278.752 169.717 280.171 171.377L286.362 178.589L295.215 164.999C298.51 164.807 301.15 165.254 303.137 166.34C305.12 167.366 306.169 168.867 306.285 170.844C306.33 171.623 306.252 172.348 306.051 173.021C305.907 173.631 305.644 174.277 305.263 174.96C304.882 175.644 304.387 176.424 303.777 177.301C303.167 178.178 302.446 179.212 301.614 180.402L296.072 187.397L308.75 202.254C308.584 204.547 307.79 206.397 306.37 207.802C304.949 209.207 303.191 209.971 301.094 210.093C298.815 210.166 296.949 209.614 295.498 208.437C294.107 207.256 292.73 205.804 291.367 204.08L286.111 197.445L277.718 211.188C277.419 211.205 277.089 211.225 276.73 211.246C276.374 211.327 276.076 211.374 275.837 211.388C272.782 211.566 270.409 211.074 268.718 209.91C267.088 208.744 266.218 207.232 266.11 205.375C266.026 203.937 266.282 202.66 266.878 201.544C267.53 200.364 268.639 198.766 270.204 196.751L276.904 187.976L264.04 174.573Z" fill="black"/>
<path d="M400.733 184.265L406.397 184.532L405.218 209.564C405.029 209.602 404.674 209.702 404.153 209.864C403.633 209.98 403.117 210.026 402.605 210.002C401.672 209.958 400.94 209.643 400.407 209.057C399.876 208.425 399.631 207.666 399.673 206.78L400.733 184.265ZM406.008 192.783L400.348 192.446L401.385 170.42C401.429 169.488 401.744 168.755 402.329 168.222C402.915 167.689 403.674 167.445 404.606 167.489C405.119 167.513 405.629 167.607 406.135 167.771C406.641 167.935 406.985 168.068 407.167 168.17L406.008 192.783ZM403.52 190.563L403.744 185.808L424.79 186.799C424.921 186.992 425.047 187.302 425.167 187.728C425.287 188.154 425.336 188.6 425.314 189.066C425.279 189.812 425.064 190.41 424.669 190.858C424.275 191.307 423.727 191.515 423.028 191.482L403.52 190.563ZM402.605 210.002L402.829 205.247L426.392 206.356C426.523 206.549 426.649 206.859 426.769 207.285C426.891 207.665 426.941 208.111 426.916 208.623C426.881 209.369 426.666 209.967 426.271 210.415C425.877 210.864 425.329 211.072 424.63 211.039L402.605 210.002ZM404.379 172.313L404.606 167.489L427.821 168.582C427.952 168.775 428.077 169.084 428.197 169.51C428.317 169.937 428.366 170.383 428.345 170.849C428.309 171.595 428.093 172.215 427.696 172.71C427.301 173.159 426.754 173.367 426.055 173.334L404.379 172.313ZM456.752 207.015L457.858 183.521L463.455 183.714L462.336 207.488C462.294 208.374 462.051 209.086 461.605 209.626C461.208 210.121 460.577 210.605 459.714 211.079C458.753 211.641 457.399 212.138 455.65 212.569C453.899 213.047 451.904 213.234 449.667 213.128C446.31 212.97 443.378 212.248 440.869 210.962C438.36 209.676 436.441 207.764 435.112 205.225C433.786 202.64 433.216 199.366 433.402 195.404C433.593 191.348 434.447 188.095 435.964 185.644C437.528 183.194 439.549 181.444 442.028 180.393C444.509 179.295 447.194 178.814 450.085 178.95C451.903 179.036 453.615 179.373 455.223 179.963C456.83 180.553 458.082 181.242 458.98 182.032L458.736 187.206C457.892 186.279 456.762 185.478 455.345 184.804C453.977 184.086 452.338 183.681 450.427 183.591C448.515 183.501 446.724 183.838 445.053 184.6C443.384 185.316 442.017 186.583 440.95 188.401C439.883 190.22 439.276 192.69 439.129 195.814C438.93 200.056 439.809 203.204 441.768 205.258C443.729 207.266 446.411 208.35 449.814 208.51C451.446 208.587 452.782 208.486 453.823 208.208C454.912 207.886 455.889 207.488 456.752 207.015ZM463.389 185.113L457.792 184.919L458.625 167.229C458.863 167.147 459.217 167.07 459.687 166.999C460.207 166.883 460.723 166.837 461.235 166.861C462.261 166.91 462.997 167.154 463.443 167.596C463.939 167.993 464.165 168.634 464.124 169.52L463.389 185.113ZM473.262 201.485L473.561 195.122L479.155 195.386L478.869 201.469C478.728 204.452 479.42 206.634 480.943 208.014C482.467 209.394 484.627 210.149 487.424 210.281C489.288 210.369 490.882 210.257 492.205 209.946C493.53 209.587 494.575 209.216 495.341 208.832L495.936 196.176L501.53 196.439L500.944 208.885C500.898 209.864 500.721 210.65 500.413 211.243C500.153 211.791 499.521 212.322 498.516 212.836C497.462 213.393 495.966 213.907 494.028 214.376C492.091 214.846 489.794 215.018 487.136 214.893C484.06 214.748 481.447 214.181 479.298 213.192C477.197 212.159 475.632 210.684 474.601 208.766C473.572 206.802 473.126 204.375 473.262 201.485ZM501.359 200.075L495.765 199.812L496.595 182.191C496.832 182.109 497.186 182.032 497.657 181.961C498.176 181.845 498.692 181.799 499.205 181.824C500.231 181.872 500.967 182.117 501.413 182.558C501.908 182.955 502.134 183.62 502.09 184.552L501.359 200.075ZM478.984 199.022L473.39 198.758L474.22 181.138C474.457 181.056 474.811 180.979 475.282 180.907C475.801 180.792 476.34 180.747 476.9 180.773C477.879 180.82 478.591 181.063 479.038 181.505C479.533 181.902 479.759 182.567 479.715 183.499L478.984 199.022ZM527.456 187.288C524.286 187.139 521.602 188.087 519.403 190.133C517.204 192.178 516.011 195.205 515.822 199.214C515.635 203.177 516.494 206.277 518.397 208.516C520.347 210.757 522.977 211.955 526.287 212.111C528.245 212.203 529.888 212.023 531.218 211.572C532.549 211.074 533.744 210.5 534.803 209.849C535.302 210.153 535.705 210.522 536.012 210.957C536.319 211.392 536.458 211.912 536.429 212.518C536.368 213.823 535.336 214.896 533.334 215.736C531.381 216.532 528.96 216.862 526.07 216.726C522.853 216.574 519.992 215.832 517.485 214.499C515.027 213.122 513.135 211.141 511.808 208.556C510.482 205.971 509.908 202.767 510.088 198.944C510.266 195.169 511.16 192.057 512.77 189.61C514.383 187.117 516.477 185.3 519.053 184.16C521.679 182.975 524.506 182.454 527.536 182.597C530.427 182.733 532.781 183.334 534.599 184.401C536.464 185.47 537.367 186.634 537.308 187.892C537.282 188.452 537.096 188.934 536.75 189.338C536.403 189.742 535.969 190.048 535.445 190.257C534.452 189.51 533.339 188.85 532.104 188.278C530.916 187.708 529.367 187.378 527.456 187.288ZM556.521 213.604C558.479 213.697 560.096 213.586 561.372 213.272C562.697 212.914 563.648 212.562 564.225 212.215L564.703 202.076L555.989 202.577C553.557 202.65 551.737 203.101 550.53 203.932C549.323 204.763 548.679 206.017 548.6 207.695C548.519 209.42 549.132 210.804 550.437 211.846C551.79 212.891 553.818 213.477 556.521 213.604ZM557.844 184.024C561.899 184.215 565.073 185.275 567.365 187.205C569.657 189.135 570.71 192.058 570.526 195.974L569.746 212.545C569.697 213.571 569.45 214.353 569.005 214.893C568.607 215.388 568.002 215.85 567.187 216.279C566.04 216.832 564.522 217.321 562.633 217.746C560.745 218.171 558.635 218.329 556.304 218.219C551.922 218.013 548.56 216.99 546.217 215.152C543.921 213.315 542.85 210.765 543.003 207.502C543.146 204.472 544.257 202.212 546.336 200.721C548.464 199.186 551.33 198.34 554.935 198.183L564.91 197.671L565.002 195.713C565.112 193.383 564.493 191.648 563.145 190.51C561.797 189.372 559.934 188.747 557.557 188.635C555.646 188.546 553.791 188.739 551.993 189.214C550.242 189.693 548.674 190.25 547.29 190.885C546.932 190.541 546.6 190.152 546.293 189.717C546.036 189.238 545.918 188.765 545.94 188.299C545.997 187.087 546.717 186.186 548.099 185.597C549.389 185.004 550.857 184.583 552.504 184.333C554.199 184.039 555.979 183.936 557.844 184.024ZM580.645 199.884L586.239 200.147L585.784 209.796C585.697 211.661 586.17 213.015 587.205 213.858C588.242 214.654 589.693 215.096 591.557 215.184C592.35 215.221 593.242 215.123 594.234 214.89C595.226 214.656 596.057 214.368 596.728 214.026C596.994 214.319 597.234 214.68 597.447 215.111C597.661 215.541 597.754 216.036 597.728 216.596C597.68 217.621 597.034 218.432 595.791 219.027C594.549 219.623 592.855 219.87 590.711 219.769C587.448 219.616 584.825 218.768 582.842 217.226C580.905 215.687 580.016 213.239 580.174 209.883L580.645 199.884ZM583.913 191.488L584.131 186.873L598.325 187.542C598.456 187.735 598.582 188.044 598.702 188.47C598.822 188.897 598.871 189.343 598.849 189.809C598.814 190.555 598.6 191.129 598.207 191.531C597.815 191.932 597.292 192.118 596.639 192.087L583.913 191.488ZM586.14 202.245L580.546 201.981L581.738 176.67C581.975 176.587 582.329 176.51 582.8 176.439C583.319 176.323 583.859 176.279 584.418 176.305C585.397 176.351 586.11 176.595 586.556 177.037C587.051 177.434 587.278 178.075 587.236 178.961L586.14 202.245ZM607.234 177.029C607.28 176.05 607.668 175.251 608.398 174.631C609.13 173.965 610.009 173.656 611.035 173.704C612.107 173.755 612.953 174.145 613.572 174.875C614.194 175.558 614.482 176.389 614.436 177.368C614.39 178.347 614.024 179.171 613.339 179.839C612.655 180.461 611.778 180.747 610.706 180.696C609.68 180.648 608.833 180.281 608.164 179.596C607.498 178.863 607.188 178.008 607.234 177.029ZM606.941 201.122L612.535 201.385L611.672 219.705C611.435 219.787 611.081 219.864 610.61 219.935C610.137 220.053 609.621 220.099 609.062 220.073C608.083 220.027 607.346 219.805 606.851 219.408C606.358 218.964 606.132 218.3 606.174 217.414L606.941 201.122ZM612.406 204.112L606.812 203.849L607.586 187.417C607.823 187.335 608.177 187.258 608.648 187.187C609.167 187.071 609.707 187.026 610.266 187.053C611.245 187.099 611.958 187.343 612.404 187.784C612.899 188.181 613.125 188.846 613.081 189.778L612.406 204.112ZM653.345 205.619C653.183 209.069 652.389 212.045 650.963 214.547C649.537 217.05 647.602 218.944 645.159 220.23C642.716 221.517 639.886 222.085 636.67 221.933C633.453 221.782 630.666 220.95 628.308 219.437C625.996 217.927 624.248 215.859 623.064 213.234C621.879 210.608 621.368 207.571 621.531 204.121C621.695 200.625 622.489 197.649 623.913 195.194C625.386 192.693 627.344 190.8 629.787 189.514C632.277 188.229 635.106 187.662 638.276 187.811C641.446 187.96 644.187 188.79 646.498 190.3C648.81 191.811 650.558 193.879 651.742 196.504C652.976 199.085 653.51 202.123 653.345 205.619ZM638.059 192.426C634.936 192.279 632.389 193.28 630.419 195.43C628.498 197.535 627.446 200.522 627.264 204.391C627.08 208.307 627.822 211.402 629.49 213.676C631.205 215.953 633.67 217.167 636.887 217.318C640.057 217.467 642.579 216.488 644.453 214.381C646.377 212.229 647.43 209.218 647.612 205.349C647.794 201.48 647.028 198.408 645.313 196.131C643.647 193.81 641.229 192.575 638.059 192.426ZM690.21 202.169L689.874 209.301L684.28 209.038L684.603 202.186C684.726 199.575 684.07 197.629 682.635 196.347C681.247 195.067 679.318 194.368 676.847 194.252C674.983 194.164 673.317 194.319 671.85 194.718C670.383 195.116 669.122 195.594 668.068 196.151L667.499 208.248L661.905 207.984L662.461 196.168C662.507 195.189 662.731 194.405 663.133 193.817C663.583 193.184 664.312 192.587 665.319 192.027C666.564 191.385 668.203 190.808 670.236 190.297C672.271 189.739 674.547 189.519 677.065 189.637C681.307 189.837 684.593 190.973 686.925 193.045C689.306 195.072 690.401 198.114 690.21 202.169ZM662.086 204.139L667.68 204.402L666.837 222.302C666.6 222.385 666.246 222.461 665.775 222.533C665.302 222.651 664.786 222.696 664.227 222.67C663.248 222.624 662.511 222.402 662.016 222.005C661.523 221.562 661.297 220.897 661.339 220.011L662.086 204.139ZM684.461 205.192L690.055 205.456L689.212 223.356C688.975 223.438 688.597 223.514 688.08 223.583C687.608 223.701 687.115 223.748 686.602 223.723C685.577 223.675 684.816 223.452 684.321 223.055C683.875 222.614 683.672 221.95 683.714 221.065L684.461 205.192Z" fill="black"/>
<g filter="url(#filter0_d_83_87)">
<path d="M82.3841 338.448C82.6088 343.297 81.9121 347.417 80.294 350.808C78.6738 354.154 76.3643 356.737 73.3653 358.558C70.413 360.376 67.0023 361.375 63.1331 361.554C59.3105 361.732 55.822 361.052 52.6676 359.517C49.5131 357.981 46.9745 355.623 45.0519 352.442C43.127 349.214 42.0523 345.176 41.8276 340.328C41.6029 335.48 42.324 331.382 43.9908 328.035C45.6555 324.641 47.9639 322.034 50.9162 320.216C53.9152 318.395 57.3026 317.397 61.0786 317.222C64.9011 317.045 68.3663 317.725 71.4742 319.263C74.6287 320.799 77.1683 323.18 79.0931 326.408C81.0624 329.587 82.1594 333.6 82.3841 338.448ZM76.5803 338.717C76.3232 333.17 74.797 328.966 72.0015 326.106C69.2506 323.197 65.6841 321.844 61.3022 322.047C56.9668 322.248 53.5408 323.925 51.0241 327.078C48.5518 330.182 47.4442 334.508 47.7013 340.056C47.9584 345.603 49.4624 349.831 52.2134 352.74C54.9622 355.603 58.5275 356.933 62.9095 356.73C67.3381 356.524 70.7885 354.87 73.2608 351.765C75.7309 348.614 76.8374 344.265 76.5803 338.717ZM91.9435 347.466L91.6486 341.102L97.2426 340.843L97.5245 346.927C97.6628 349.91 98.5546 352.018 100.2 353.25C101.846 354.481 104.067 355.032 106.864 354.903C108.728 354.816 110.305 354.556 111.593 354.123C112.879 353.643 113.885 353.176 114.611 352.722L114.025 340.065L119.619 339.806L120.195 352.253C120.241 353.232 120.138 354.031 119.886 354.65C119.679 355.22 119.099 355.807 118.146 356.412C117.148 357.066 115.707 357.716 113.822 358.364C111.936 359.012 109.665 359.398 107.008 359.521C103.931 359.664 101.277 359.343 99.0447 358.559C96.8571 357.726 95.1607 356.403 93.9555 354.59C92.7481 352.731 92.0774 350.356 91.9435 347.466ZM119.787 343.442L114.193 343.701L113.376 326.08C113.605 325.976 113.951 325.867 114.412 325.752C114.919 325.588 115.428 325.495 115.941 325.471C116.967 325.423 117.722 325.599 118.208 325.997C118.738 326.346 119.024 326.987 119.068 327.919L119.787 343.442ZM97.4111 344.479L91.8171 344.738L91.0005 327.117C91.2292 327.013 91.5745 326.904 92.0364 326.789C92.5427 326.625 93.0755 326.531 93.6349 326.505C94.6139 326.459 95.3462 326.636 95.8318 327.034C96.3618 327.383 96.6485 328.024 96.6917 328.956L97.4111 344.479ZM135.312 330.95L135.824 341.998L130.23 342.258L129.737 331.629C129.687 330.557 129.835 329.709 130.18 329.086C130.569 328.414 131.216 327.753 132.12 327.104C133.296 326.255 134.919 325.502 136.991 324.846C139.061 324.143 141.377 323.732 143.941 323.613C147.671 323.44 149.579 324.286 149.665 326.15C149.687 326.617 149.637 327.063 149.517 327.489C149.394 327.868 149.223 328.203 149.003 328.494C148.532 328.422 147.922 328.357 147.172 328.298C146.421 328.24 145.673 328.227 144.928 328.262C142.783 328.361 140.906 328.682 139.296 329.224C137.684 329.719 136.356 330.294 135.312 330.95ZM130.081 339.041L135.714 339.621L136.524 357.102C136.295 357.206 135.95 357.316 135.488 357.43C135.028 357.592 134.519 357.685 133.959 357.711C132.98 357.757 132.226 357.605 131.696 357.256C131.163 356.86 130.877 356.219 130.836 355.333L130.081 339.041ZM194.032 345.958C194.17 348.941 193.182 351.323 191.069 353.103C188.956 354.882 185.825 355.868 181.676 356.061C178.133 356.225 175.218 355.823 172.931 354.854C170.641 353.839 169.466 352.679 169.406 351.374C169.38 350.814 169.495 350.272 169.751 349.746C170.051 349.171 170.497 348.707 171.088 348.353C172.388 349.18 173.894 349.928 175.607 350.596C177.319 351.264 179.248 351.548 181.392 351.449C186.24 351.224 188.589 349.48 188.438 346.217C188.375 344.865 187.905 343.789 187.027 342.989C186.193 342.14 184.975 341.566 183.373 341.266L177.498 339.997C174.622 339.429 172.498 338.453 171.126 337.069C169.751 335.637 169.013 333.826 168.912 331.635C168.797 329.165 169.7 326.974 171.62 325.063C173.541 323.152 176.552 322.101 180.654 321.911C182.845 321.81 184.767 321.954 186.42 322.345C188.071 322.689 189.357 323.213 190.277 323.918C191.242 324.574 191.744 325.322 191.783 326.161C191.811 326.767 191.673 327.31 191.368 327.792C191.11 328.271 190.73 328.639 190.228 328.896C189.651 328.549 188.91 328.186 188.005 327.807C187.144 327.38 186.125 327.054 184.946 326.828C183.766 326.556 182.476 326.452 181.078 326.517C179.027 326.612 177.39 327.085 176.168 327.935C174.946 328.786 174.369 329.934 174.436 331.379C174.483 332.405 174.875 333.298 175.611 334.058C176.391 334.769 177.583 335.274 179.185 335.574L184.065 336.539C187.269 337.138 189.702 338.217 191.363 339.775C193.021 341.286 193.911 343.347 194.032 345.958ZM202.124 335.702L207.718 335.443L208.165 345.093C208.252 346.957 208.849 348.261 209.958 349.004C211.065 349.7 212.551 350.005 214.415 349.918C215.208 349.882 216.087 349.701 217.053 349.376C218.019 349.051 218.82 348.686 219.455 348.283C219.748 348.55 220.02 348.888 220.273 349.297C220.525 349.705 220.665 350.189 220.691 350.749C220.738 351.774 220.171 352.642 218.989 353.35C217.807 354.059 216.144 354.463 214 354.563C210.737 354.714 208.046 354.114 205.928 352.764C203.857 351.412 202.743 349.058 202.588 345.701L202.124 335.702ZM204.596 327.038L204.382 322.423L218.577 321.766C218.725 321.946 218.879 322.242 219.038 322.655C219.198 323.068 219.288 323.508 219.31 323.974C219.344 324.72 219.185 325.311 218.831 325.748C218.478 326.185 217.975 326.418 217.322 326.449L204.596 327.038ZM207.815 337.541L202.221 337.8L201.048 312.487C201.277 312.383 201.622 312.274 202.084 312.159C202.59 311.995 203.123 311.9 203.683 311.874C204.662 311.829 205.394 312.005 205.88 312.403C206.41 312.752 206.695 313.37 206.736 314.256L207.815 337.541ZM257.152 335.464C257.312 338.914 256.798 341.951 255.612 344.575C254.425 347.2 252.676 349.266 250.363 350.775C248.051 352.284 245.286 353.113 242.069 353.262C238.853 353.411 236 352.842 233.511 351.556C231.069 350.268 229.136 348.372 227.712 345.868C226.288 343.365 225.496 340.389 225.336 336.939C225.174 333.443 225.687 330.406 226.876 327.828C228.109 325.201 229.882 323.134 232.194 321.625C234.553 320.114 237.318 319.285 240.488 319.138C243.658 318.991 246.464 319.562 248.906 320.85C251.349 322.139 253.282 324.035 254.706 326.538C256.174 328.993 256.99 331.968 257.152 335.464ZM240.702 323.753C237.579 323.898 235.136 325.133 233.375 327.457C231.659 329.732 230.89 332.804 231.07 336.673C231.251 340.589 232.278 343.601 234.151 345.71C236.071 347.817 238.639 348.796 241.856 348.647C245.025 348.5 247.445 347.29 249.115 345.017C250.83 342.695 251.597 339.599 251.418 335.73C251.239 331.861 250.189 328.873 248.269 326.766C246.394 324.611 243.872 323.606 240.702 323.753ZM270.928 324.665L271.44 335.713L265.846 335.972L265.353 325.344C265.304 324.272 265.451 323.424 265.796 322.801C266.185 322.129 266.832 321.468 267.736 320.819C268.912 319.97 270.535 319.217 272.607 318.561C274.677 317.858 276.994 317.447 279.557 317.328C283.287 317.155 285.195 318.001 285.281 319.865C285.303 320.332 285.253 320.778 285.133 321.204C285.01 321.583 284.839 321.918 284.619 322.209C284.148 322.137 283.538 322.072 282.788 322.013C282.038 321.954 281.29 321.942 280.544 321.977C278.399 322.076 276.522 322.397 274.912 322.939C273.3 323.434 271.972 324.009 270.928 324.665ZM265.697 332.756L271.33 333.336L272.14 350.817C271.911 350.921 271.566 351.03 271.104 351.145C270.644 351.307 270.135 351.4 269.575 351.426C268.596 351.472 267.842 351.32 267.312 350.971C266.78 350.575 266.493 349.934 266.452 349.048L265.697 332.756ZM300.584 342.421C299.722 340.966 298.674 339.006 297.438 336.541C296.201 334.028 294.904 331.239 293.547 328.172C292.234 325.056 290.967 321.891 289.743 318.678C290.048 318.196 290.45 317.804 290.95 317.5C291.496 317.195 292.073 317.028 292.679 317C293.471 316.963 294.133 317.143 294.666 317.538C295.198 317.934 295.65 318.614 296.022 319.578C297.602 323.429 299.25 327.253 300.968 331.051C302.686 334.849 304.573 338.779 306.63 342.842L306.91 342.829C307.798 340.826 308.71 338.331 309.646 335.344C310.582 332.358 311.464 329.21 312.292 325.901C313.119 322.593 313.793 319.478 314.311 316.558C314.631 316.403 314.975 316.27 315.344 316.16C315.757 316 316.197 315.91 316.663 315.888C317.455 315.852 318.118 316.031 318.65 316.427C319.18 316.776 319.463 317.347 319.5 318.139C319.535 318.885 319.383 320.154 319.046 321.945C318.706 323.689 318.217 325.744 317.58 328.109C316.986 330.426 316.261 332.912 315.403 335.568C314.589 338.175 313.681 340.763 312.679 343.332C311.721 345.853 310.73 348.141 309.704 350.197C307.743 354.259 305.926 357.38 304.251 359.56C302.579 361.786 300.997 362.934 299.506 363.003C298.433 363.053 297.581 362.812 296.949 362.281C296.364 361.747 295.984 361.111 295.81 360.371C296.794 359.438 297.881 358.197 299.071 356.646C300.309 355.141 301.471 353.499 302.557 351.72C303.691 349.985 304.595 348.332 305.27 346.759C304.467 346.563 303.701 346.178 302.974 345.604C302.293 345.028 301.497 343.967 300.584 342.421Z" fill="#6CA373"/>
</g>
<g filter="url(#filter1_d_83_87)">
<path d="M430.613 331.629C430.472 336.48 429.468 340.536 427.599 343.796C425.732 347.01 423.235 349.412 420.108 351.003C417.027 352.594 413.551 353.334 409.679 353.222C405.854 353.111 402.426 352.171 399.396 350.403C396.366 348.635 394.012 346.092 392.334 342.775C390.657 339.412 389.889 335.305 390.03 330.454C390.17 325.602 391.197 321.57 393.111 318.358C395.026 315.098 397.524 312.673 400.605 311.082C403.732 309.491 407.185 308.751 410.963 308.86C414.788 308.971 418.193 309.91 421.176 311.677C424.206 313.446 426.56 316.011 428.236 319.375C429.961 322.693 430.753 326.777 430.613 331.629ZM424.805 331.46C424.966 325.909 423.76 321.603 421.188 318.54C418.663 315.433 415.208 313.815 410.824 313.688C406.485 313.563 402.943 314.977 400.196 317.933C397.498 320.842 396.068 325.073 395.907 330.624C395.747 336.175 396.928 340.504 399.453 343.612C401.979 346.673 405.434 348.267 409.819 348.394C414.25 348.522 417.815 347.131 420.514 344.222C423.214 341.265 424.644 337.011 424.805 331.46ZM439.467 341.339L439.652 334.971L445.249 335.134L445.073 341.221C444.987 344.206 445.717 346.375 447.266 347.727C448.814 349.079 450.987 349.796 453.786 349.877C455.652 349.931 457.243 349.79 458.56 349.455C459.879 349.073 460.917 348.683 461.675 348.284L462.042 335.62L467.64 335.782L467.279 348.237C467.251 349.216 467.088 350.005 466.791 350.603C466.541 351.156 465.918 351.699 464.923 352.23C463.879 352.807 462.393 353.347 460.464 353.852C458.535 354.356 456.241 354.57 453.582 354.493C450.504 354.404 447.881 353.884 445.714 352.934C443.595 351.939 442.003 350.493 440.938 348.594C439.874 346.649 439.383 344.231 439.467 341.339ZM467.534 339.42L461.937 339.258L462.447 321.626C462.683 321.539 463.036 321.456 463.505 321.376C464.022 321.251 464.537 321.196 465.05 321.211C466.077 321.24 466.817 321.472 467.271 321.905C467.774 322.293 468.011 322.954 467.984 323.887L467.534 339.42ZM445.144 338.772L439.546 338.61L440.057 320.977C440.293 320.891 440.645 320.808 441.114 320.728C441.631 320.603 442.17 320.548 442.73 320.565C443.709 320.593 444.426 320.824 444.881 321.257C445.383 321.645 445.621 322.306 445.594 323.239L445.144 338.772ZM483.954 328.131L483.634 339.186L478.037 339.024L478.345 328.388C478.376 327.316 478.587 326.481 478.977 325.886C479.416 325.245 480.111 324.635 481.061 324.055C482.297 323.297 483.972 322.669 486.088 322.17C488.204 321.624 490.546 321.389 493.111 321.463C496.843 321.571 498.682 322.558 498.628 324.424C498.614 324.89 498.531 325.331 498.379 325.747C498.229 326.116 498.033 326.437 497.791 326.711C497.327 326.604 496.724 326.493 495.98 326.378C495.236 326.263 494.491 326.195 493.745 326.173C491.599 326.111 489.703 326.29 488.057 326.709C486.412 327.081 485.045 327.555 483.954 328.131ZM478.13 335.805L483.703 336.807L483.197 354.3C482.961 354.386 482.608 354.469 482.139 354.549C481.669 354.676 481.153 354.731 480.594 354.715C479.614 354.686 478.873 354.478 478.371 354.09C477.87 353.655 477.632 352.995 477.658 352.109L478.13 335.805ZM539.378 331.976C538.454 334.891 537.459 337.803 536.394 340.713C535.376 343.625 534.387 346.351 533.427 348.891C532.466 351.431 531.585 353.623 530.785 355.467C530.405 355.69 529.98 355.864 529.509 355.991C529.039 356.117 528.407 356.169 527.614 356.146C526.868 356.124 526.172 355.964 525.527 355.665C524.927 355.414 524.519 355.006 524.302 354.439C523.863 353.493 523.365 352.125 522.81 350.334C522.302 348.546 521.754 346.499 521.167 344.194C520.627 341.891 520.066 339.517 519.483 337.073C518.901 334.581 518.364 332.185 517.87 329.883C517.423 327.582 517.039 325.54 516.717 323.757C517.053 323.44 517.458 323.148 517.933 322.882C518.454 322.617 519.064 322.494 519.764 322.515C520.65 322.54 521.296 322.816 521.701 323.341C522.154 323.821 522.458 324.6 522.614 325.678C522.977 327.65 523.379 329.879 523.821 332.366C524.309 334.855 524.798 337.32 525.287 339.762C525.823 342.205 526.296 344.413 526.706 346.385C527.164 348.313 527.496 349.746 527.702 350.686L527.982 350.694C528.388 349.585 529.023 347.783 529.889 345.287C530.757 342.745 531.774 339.856 532.941 336.622C534.155 333.389 535.371 330.109 536.588 326.783C536.968 326.561 537.415 326.41 537.931 326.332C538.448 326.207 539.01 326.153 539.617 326.171C540.456 326.195 541.151 326.378 541.702 326.721C542.253 327.017 542.614 327.471 542.783 328.083C543.809 331.334 544.767 334.537 545.656 337.69C546.546 340.797 547.33 343.574 548.006 346.022C548.683 348.422 549.168 350.21 549.461 351.386L549.811 351.396C551.004 347.276 552.299 342.855 553.696 338.133C555.094 333.412 556.255 328.777 557.18 324.228C557.845 323.827 558.644 323.64 559.577 323.667C560.37 323.69 560.995 323.895 561.45 324.282C561.906 324.668 562.122 325.258 562.099 326.051C562.085 326.564 561.893 327.539 561.525 328.976C561.203 330.414 560.757 332.105 560.187 334.049C559.617 335.994 558.974 338.076 558.256 340.296C557.586 342.471 556.894 344.598 556.18 346.679C555.468 348.712 554.784 350.56 554.129 352.222C553.52 353.885 552.993 355.177 552.546 356.097C552.307 356.277 551.906 356.429 551.342 356.553C550.824 356.724 550.215 356.8 549.515 356.78C547.602 356.725 546.496 356.249 546.195 355.353C545.59 353.655 544.904 351.558 544.136 349.061C543.369 346.518 542.585 343.787 541.782 340.869C540.981 337.905 540.18 334.941 539.378 331.976ZM597.756 343.821L592.159 343.658L592.345 337.221C592.426 334.422 591.693 332.324 590.146 330.925C588.646 329.528 586.66 328.793 584.188 328.722C582.368 328.669 580.656 328.969 579.049 329.623C577.49 330.278 576.159 331.08 575.058 332.029L574.14 327.45C575.283 326.69 576.775 325.939 578.617 325.199C580.507 324.413 582.665 324.056 585.091 324.126C588.963 324.238 592.104 325.379 594.516 327.55C596.927 329.721 598.071 332.952 597.947 337.243L597.756 343.821ZM569.97 338.464L575.567 338.626L575.037 356.959C574.801 357.045 574.448 357.128 573.979 357.208C573.508 357.334 572.993 357.39 572.433 357.373C571.454 357.345 570.713 357.137 570.211 356.749C569.71 356.314 569.472 355.654 569.498 354.767L569.97 338.464ZM592.288 339.18L597.884 339.412L597.357 357.605C597.121 357.691 596.745 357.774 596.23 357.852C595.759 357.979 595.267 358.034 594.754 358.02C593.728 357.99 592.964 357.781 592.461 357.393C592.007 356.96 591.793 356.3 591.818 355.414L592.288 339.18ZM575.488 341.355L569.891 341.193L570.748 311.595C570.983 311.509 571.336 311.426 571.805 311.346C572.322 311.221 572.861 311.166 573.421 311.183C574.4 311.211 575.117 311.442 575.571 311.875C576.074 312.263 576.312 312.9 576.286 313.787L575.488 341.355ZM613.731 351.006C612.981 349.49 612.083 347.457 611.036 344.905C609.991 342.307 608.907 339.428 607.785 336.268C606.711 333.062 605.684 329.811 604.706 326.514C605.046 326.057 605.477 325.696 605.998 325.431C606.566 325.168 607.153 325.045 607.759 325.062C608.552 325.085 609.199 325.314 609.7 325.749C610.201 326.183 610.601 326.895 610.899 327.884C612.185 331.843 613.542 335.781 614.969 339.697C616.396 343.613 617.983 347.674 619.728 351.88L620.008 351.888C621.044 349.957 622.142 347.538 623.3 344.63C624.458 341.722 625.574 338.65 626.648 335.413C627.722 332.176 628.627 329.121 629.364 326.248C629.695 326.117 630.048 326.011 630.424 325.928C630.848 325.801 631.293 325.743 631.759 325.757C632.552 325.78 633.199 326.009 633.7 326.443C634.203 326.831 634.442 327.422 634.419 328.215C634.398 328.961 634.151 330.215 633.68 331.975C633.21 333.689 632.569 335.701 631.755 338.012C630.989 340.277 630.078 342.702 629.023 345.286C628.016 347.825 626.916 350.337 625.723 352.824C624.579 355.265 623.418 357.472 622.24 359.446C619.98 363.348 617.933 366.324 616.1 368.372C614.265 370.466 612.601 371.492 611.108 371.448C610.035 371.417 609.204 371.113 608.614 370.536C608.07 369.96 607.739 369.297 607.621 368.546C608.673 367.69 609.85 366.533 611.153 365.077C612.501 363.669 613.783 362.119 614.999 360.426C616.26 358.782 617.287 357.201 618.078 355.684C617.291 355.427 616.557 354.986 615.875 354.359C615.239 353.734 614.525 352.616 613.731 351.006Z" fill="#F8BE4B"/>
</g>
<circle cx="352.965" cy="192.647" r="20" fill="#B49AF7"/>
<defs>
<filter id="filter0_d_83_87" x="36.8003" y="305.273" width="288.732" height="77.5977" filterUnits="userSpaceOnUse" color-interpolation-filters="sRGB">
<feFlood flood-opacity="0" result="BackgroundImageFix"/>
<feColorMatrix in="SourceAlpha" type="matrix" values="0 0 0 0 0 0 0 0 0 0 0 0 0 0 0 0 0 0 127 0" result="hardAlpha"/>
<feOffset dy="4"/>
<feGaussianBlur stdDeviation="2"/>
<feComposite in2="hardAlpha" operator="out"/>
<feColorMatrix type="matrix" values="0 0 0 0 0.193866 0 0 0 0 0.157439 0 0 0 0 0.0852134 0 0 0 1 0"/>
<feBlend mode="normal" in2="BackgroundImageFix" result="effect1_dropShadow_83_87"/>
<feBlend mode="normal" in="SourceGraphic" in2="effect1_dropShadow_83_87" result="shape"/>
</filter>
<filter id="filter1_d_83_87" x="385.029" y="305.894" width="253.832" height="74.1929" filterUnits="userSpaceOnUse" color-interpolation-filters="sRGB">
<feFlood flood-opacity="0" result="BackgroundImageFix"/>
<feColorMatrix in="SourceAlpha" type="matrix" values="0 0 0 0 0 0 0 0 0 0 0 0 0 0 0 0 0 0 127 0" result="hardAlpha"/>
<feOffset dy="4"/>
<feGaussianBlur stdDeviation="2"/>
<feComposite in2="hardAlpha" operator="out"/>
<feColorMatrix type="matrix" values="0 0 0 0 0.0787081 0 0 0 0 0.184157 0 0 0 0 0.0921289 0 0 0 1 0"/>
<feBlend mode="normal" in2="BackgroundImageFix" result="effect1_dropShadow_83_87"/>
<feBlend mode="normal" in="SourceGraphic" in2="effect1_dropShadow_83_87" result="shape"/>
</filter>
</defs>
</svg>
